Coordinates
version=1
nRows=9
nColumns=36
inDegrees=yes

Units are S.I. units (second, meters, Newtons, ...)
If the header above contains a line with 'inDegrees', this indicates whether rotational values are in degrees (yes) or radians (no).

endheader
time	pelvis_tilt	pelvis_list	pelvis_rotation	pelvis_tx	pelvis_ty	pelvis_tz	hip_flexion_r	hip_adduction_r	hip_rotation_r	knee_angle_r	knee_angle_r_beta	ankle_angle_r	subtalar_angle_r	mtp_angle_r	hip_flexion_l	hip_adduction_l	hip_rotation_l	knee_angle_l	knee_angle_l_beta	ankle_angle_l	subtalar_angle_l	mtp_angle_l	lumbar_extension	lumbar_bending	lumbar_rotation	arm_flex_r	arm_add_r	arm_rot_r	elbow_flex_r	pro_sup_r	arm_flex_l	arm_add_l	arm_rot_l	elbow_flex_l	pro_sup_l
      3.70000000	    -27.78439724	      0.07296093	     -4.72617478	      1.58719108	      0.71750819	      0.07554355	     79.79321263	     -5.08991740	      1.14403825	     79.68587273	      1.39078085	     29.13829136	    -11.91742574	     -7.49999987	     80.27908493	    -10.90833157	      1.83917361	     79.67880985	      1.39065758	     27.31573755	    -19.82620457	     -7.49999987	    -25.65862186	      1.57938797	      4.26589119	     40.92702278	    -11.75614965	      4.31688957	     60.23239990	     70.42075006	     51.94087197	    -12.24274800	     23.41469603	     67.39376794	     81.82450604
      3.71666670	    -29.53330571	      0.30385136	     -4.82497590	      1.58267271	      0.70911085	      0.07835331	     83.22192911	     -5.20004426	      0.91580532	     81.02697512	      1.41418750	     29.19530899	    -11.71088447	     -7.49999987	     83.62157962	    -11.19099442	      1.84433411	     80.63397953	      1.40732843	     26.98763036	    -20.23215869	     -7.49999987	    -26.58336985	      0.84827044	      5.37844766	     42.78985657	    -12.16424663	      3.26579458	     66.25397895	     83.49260377	     56.85539881	    -11.96519939	     26.71972130	     67.65647548	     84.98661875
      3.73333330	    -31.44741629	      0.58049921	     -4.87940289	      1.56586517	      0.69803580	      0.06932405	     86.91724337	     -5.52224590	      0.73168248	     82.15398180	      1.43385748	     28.71066587	    -11.69854751	     -7.49999987	     87.19972513	    -11.28466748	      1.79036769	     81.55151007	      1.42334236	     26.05022238	    -20.89739698	     -7.49999987	    -27.23783551	      0.69554847	      5.03696347	     46.87626102	    -12.59823158	      5.72301258	     70.01663885	     85.40740752	     61.51449526	    -12.85147933	     28.27101332	     70.69137110	     86.07377962
      3.75000000	    -33.11904283	      0.83188486	     -4.83609948	      1.55724067	      0.68648722	      0.06675646	     90.29965370	     -5.96528572	      0.61442811	     83.23754988	      1.45276931	     28.15033575	    -11.65607911	     -7.49999987	     90.53564790	    -11.13139928	      1.82681576	     82.52378446	      1.44031175	     24.93147093	    -21.68139176	     -7.49999987	    -27.91895609	      0.70521374	      4.79659032	     49.80817552	    -12.86726451	      6.59830679	     73.69835347	     93.11650919	     65.00927946	    -13.15440833	     28.12198843	     73.37101081	     88.62363922
      3.76666670	    -34.36457767	      0.99724670	     -4.78529724	      1.56121719	      0.68334466	      0.07014254	     92.64885808	     -6.29814049	      0.53581771	     83.93786437	      1.46499210	     27.66287434	    -11.68252472	     -7.49999987	     92.86869365	    -10.81950153	      2.07306752	     83.16013392	      1.45141814	     24.14729171	    -22.39420996	     -7.49999987	    -28.53749772	      0.70680534	      4.71818109	     50.70968582	    -13.01619094	      7.49007755	     77.19303559	     93.45971580	     66.13583785	    -13.41691322	     27.40781191	     75.06374567	     88.84652584
      3.78333330	    -35.58194077	      1.06441405	     -4.71112852	      1.54835187	      0.67980963	      0.06619134	     94.75403376	     -6.66069608	      0.39471276	     84.25431871	      1.47051527	     26.83933559	    -11.84818442	     -7.49999987	     95.12488046	    -10.53585125	      2.33351290	     83.60140564	      1.45911979	     23.35664723	    -22.82870258	     -7.49999987	    -29.31804627	      0.87163771	      4.70148194	     53.67270408	    -12.98203963	      8.57081315	     79.90447762	     94.04215825	     68.98202814	    -13.67196554	     28.09652661	     76.33135423	     89.21774533
      3.80000000	    -36.42383676	      1.16424696	     -4.69005801	      1.54899555	      0.67817625	      0.06562092	     96.20528429	     -6.89359692	      0.32575433	     84.41575974	      1.47333295	     26.26018072	    -11.60307796	     -7.49999987	     96.63861836	    -10.35502398	      2.48483002	     83.75073178	      1.46172602	     23.06244925	    -22.77199466	     -7.49999987	    -29.97712043	      0.84473378	      4.81275432	     55.66564546	    -12.46450856	      8.72657397	     80.60301701	     94.13289818	     70.54346102	    -12.96321571	     27.96672813	     76.70812037	     89.26177468
      3.81666670	    -37.22055991	      1.07177018	     -4.53625242	      1.54851915	      0.67258428	      0.06511961	     97.35457842	     -7.27956217	      0.07329140	     84.40993881	      1.47323135	     25.05959824	    -11.89169221	     -7.49999987	     97.97477367	     -9.88310980	      2.96616946	     83.78211943	      1.46227384	     21.90790244	    -23.50901985	     -7.49999987	    -30.52359771	      1.19954849	      4.87699183	     57.26787159	    -13.23881815	     10.30520785	     83.49385883	     94.81463690	     72.03728472	    -13.03797253	     28.58822615	     78.51226136	     89.72861688
      3.83333330	    -37.49481771	      1.11863711	     -4.54567835	      1.54823461	      0.67236633	      0.06531894	     97.87416686	     -7.35923771	      0.12165354	     84.38186821	      1.47274143	     24.68337337	    -11.91058724	     -7.49999987	     98.58956700	     -9.63598897	      3.24049234	     83.90291944	      1.46438220	     21.80284551	    -23.70275150	     -7.49999987	    -31.05789040	      1.19660660	      4.85177319	     58.41144015	    -12.96487355	     10.41727880	     84.04369397	     94.48425654	     72.93173832	    -12.43891558	     28.48119569	     79.05759875	     89.39074670
